# xmcd CD database file
#
# Track frame offsets:
#	150
#	22760
#	49517
#	64375
#	80282
#	103252
#	114987
#	136570
#	154155
#
# Disc length: 2353 seconds
#
# Revision: 0
# Processed by: cddbd v1.5.1PL2 Copyright (c) Steve Scherf et al.
# Submitted via: CDex 1.51
#
DISCID=65092f09
DTITLE=Bob Taillefer - Nouveau Steel
DYEAR=1998
DGENRE=Jazz
TTITLE0=Night In Tunisia
TTITLE1=9 To 6
TTITLE2=Third Insight
TTITLE3=Ghosting In Swingville
TTITLE4=Michel's Mood
TTITLE5=There's Bidou
TTITLE6=Chicken Shack
TTITLE7=Docteur Steve
TTITLE8=Sonnymoon For Two
EXTD=YEAR: 1998
EXTT0=
EXTT1=
EXTT2=
EXTT3=
EXTT4=
EXTT5=
EXTT6=
EXTT7=
EXTT8=
PLAYORDER=
